<?xml version="1.0"?>
<svg xmlns="http://www.w3.org/2000/svg" xmlns:xlink="http://www.w3.org/1999/xlink" xmlns:svgjs="http://svgjs.com/svgjs" version="1.1" width="512" height="512" x="0" y="0" viewBox="0 0 24 24" style="enable-background:new 0 0 512 512" xml:space="preserve" class=""><g><path xmlns="http://www.w3.org/2000/svg" d="m12 0c-4.962 0-9 4.066-9 9.065 0 7.103 8.154 14.437 8.501 14.745.143.127.321.19.499.19s.356-.063.499-.189c.347-.309 8.501-7.643 8.501-14.746 0-4.999-4.038-9.065-9-9.065zm0 14c-2.757 0-5-2.243-5-5s2.243-5 5-5 5 2.243 5 5-2.243 5-5 5z" fill="#0affef" data-original="#000000" style="" class=""/></g></svg>
